<svg xmlns="http://www.w3.org/2000/svg" viewBox="0 0 400 400"><rect width="400" height="400" fill="#efe4d2"/><circle cx="200" cy="215" r="150" fill="#e6d6bd"/><ellipse cx="200" cy="318" rx="118" ry="16" fill="#d7c3a3"/><path d="M110 150h170v120a60 60 0 0 1-60 60h-50a60 60 0 0 1-60-60z" fill="#c8553d"/><path d="M280 175h22a38 38 0 0 1 0 76h-22v-22h20a16 16 0 0 0 0-32h-20z" fill="#c8553d"/><ellipse cx="195" cy="150" rx="85" ry="16" fill="#a8432f"/><ellipse cx="195" cy="150" rx="70" ry="10" fill="#5b3a29"/><path d="M175 120c-10-14 10-22 0-38M205 118c-10-14 10-22 0-38" stroke="#fff" stroke-opacity=".7" stroke-width="7" fill="none" stroke-linecap="round"/><rect x="128" y="200" width="134" height="10" rx="5" fill="#fff" opacity=".35"/></svg>
